<?xml version="1.0" standalone="no"?>
<!DOCTYPE svg PUBLIC "-//W3C//DTD SVG 20010904//EN"
 "http://www.w3.org/TR/2001/REC-SVG-20010904/DTD/svg10.dtd">
<svg version="1.0" xmlns="http://www.w3.org/2000/svg"
 width="17067.000000pt" height="17067.000000pt" viewBox="0 0 17067.000000 17067.000000"
 preserveAspectRatio="xMidYMid meet">

<g transform="translate(0.000000,17067.000000) scale(0.100000,-0.100000)"
fill="#000000" stroke="none">
<path d="M101911 132144 c-56 -24 -91 -51 -1326 -1044 -654 -526 -2547 -2045
-4205 -3376 -6652 -5339 -7494 -6011 -8195 -6539 -305 -229 -418 -305 -462
-308 l-28 -2 -6 90 c-4 50 -7 817 -8 1705 -1 2236 22 4476 51 4811 6 74 8 148
4 162 -8 33 -97 87 -143 87 -45 0 -73 -27 -288 -274 -100 -116 -276 -314 -390
-441 -450 -499 -883 -984 -1125 -1260 -263 -301 -593 -670 -960 -1075 -117
-129 -333 -372 -479 -540 -346 -398 -696 -793 -1230 -1390 -239 -267 -635
-714 -881 -995 -526 -601 -725 -824 -1030 -1155 -645 -699 -1287 -1446 -2351
-2730 -396 -478 -529 -643 -614 -765 -90 -128 -136 -185 -150 -185 -8 0 -21
16 -30 35 -26 64 -201 599 -345 1060 -578 1842 -1187 3644 -1293 3829 -31 55
-70 81 -120 81 -89 0 -127 -56 -250 -370 -93 -235 -576 -1372 -857 -2015 -196
-450 -418 -979 -710 -1690 -300 -731 -430 -1035 -675 -1580 -232 -516 -363
-816 -615 -1415 -601 -1425 -1319 -3012 -1497 -3308 -29 -48 -38 -57 -56 -51
-45 14 -211 118 -757 475 -1478 965 -3263 2171 -6050 4084 -1067 733 -1549
1050 -1680 1107 -57 25 -159 27 -194 4 -61 -39 -42 -122 96 -426 192 -425 552
-1102 1308 -2465 474 -854 890 -1609 1235 -2240 661 -1209 1370 -2467 2185
-3875 504 -871 547 -946 710 -1240 191 -343 338 -632 380 -747 26 -73 31 -97
26 -140 -14 -120 -104 -325 -452 -1023 -386 -777 -1063 -2098 -1319 -2575
-124 -232 -242 -461 -645 -1255 -432 -849 -565 -1105 -850 -1630 -294 -542
-373 -689 -599 -1129 -282 -546 -483 -919 -826 -1531 -100 -179 -267 -476
-370 -660 -337 -603 -884 -1527 -1133 -1915 -242 -377 -737 -1106 -967 -1422
-144 -199 -306 -368 -675 -704 -702 -640 -1793 -1519 -2705 -2181 -508 -368
-1399 -983 -1870 -1289 -1147 -745 -2060 -1266 -4344 -2479 -978 -519 -1080
-575 -1171 -649 -93 -75 -116 -122 -86 -179 30 -57 212 -201 581 -457 1301
-904 2807 -2238 3700 -3280 1178 -1373 2246 -3171 2773 -4670 354 -1007 542
-1843 673 -2995 17 -151 31 -275 32 -275 1 0 344 3 762 7 3030 31 8565 -16
8565 -73 0 -16 -58 -39 -165 -64 -560 -132 -3526 -1202 -5810 -2095 -332 -130
-495 -196 -1175 -478 -305 -126 -762 -314 -1015 -417 -900 -366 -1320 -542
-1915 -800 -2589 -1126 -4994 -2355 -7215 -3688 -818 -491 -1531 -947 -2410
-1540 -1676 -1132 -2147 -1471 -3200 -2307 -578 -459 -853 -670 -1251 -962
-121 -88 -216 -175 -240 -219 -7 -13 -13 -43 -14 -67 -1 -109 128 -131 333
-55 182 66 526 179 772 253 621 187 1715 496 2355 664 1287 339 4259 960 5940
1241 4584 766 12004 1401 20270 1735 2950 119 7021 226 11810 310 1725 30
2645 56 2835 81 163 20 204 46 319 198 314 416 1532 2243 2701 4051 148 228
347 537 443 685 96 149 484 736 862 1305 705 1062 909 1372 1463 2230 428 662
777 1188 1465 2209 316 470 792 1187 1057 1595 614 946 864 1328 1117 1703
640 950 907 1353 1096 1649 543 854 1816 2770 2510 3779 239 347 299 428 321
437 74 27 3429 73 4766 66 749 -4 775 -6 775 -51 0 -29 -71 -153 -209 -366
-172 -265 -309 -480 -793 -1246 -460 -728 -748 -1182 -931 -1465 -123 -189
-417 -657 -682 -1085 -109 -176 -375 -599 -590 -940 -215 -341 -424 -674 -465
-740 -40 -66 -189 -303 -332 -527 -326 -515 -408 -648 -559 -905 -67 -114
-216 -363 -331 -552 -268 -440 -328 -560 -328 -653 0 -42 40 -78 86 -78 78 0
213 108 712 569 336 309 423 387 912 815 572 500 725 635 1560 1380 937 836
1150 1031 2090 1901 825 764 1280 1180 1965 1795 455 409 855 773 1685 1530
1258 1149 2506 2273 3065 2760 583 509 1311 1159 1689 1510 292 271 575 525
1086 975 607 533 1228 1082 1715 1515 220 195 497 441 615 545 118 105 436
386 705 625 655 582 990 875 1955 1716 1064 926 933 814 2545 2164 528 442
1019 854 1090 915 505 431 960 799 1745 1410 699 545 838 655 1150 914 430
357 561 474 641 574 48 60 53 102 13 117 -61 23 -285 30 -1299 41 -1226 13
-7888 -3 -8940 -22 -434 -8 -830 -8 -1370 0 -636 9 -1740 35 -1865 44 -32 2
-11 21 430 373 780 622 1408 1110 2760 2145 470 361 1080 828 1355 1040 275
212 721 554 991 761 270 207 789 609 1153 894 364 286 803 629 974 763 761
595 1748 1350 3517 2691 834 632 1813 1395 2045 1593 239 205 265 237 265 329
l0 58 -11813 0 c-11124 0 -13531 4 -13525 20 4 10 476 415 733 630 458 382
1195 961 2090 1645 259 197 603 460 765 584 359 274 741 573 1375 1076 264
210 631 500 815 645 184 145 589 465 900 710 1215 959 2947 2301 4325 3350
495 377 842 645 1395 1079 168 132 264 222 297 278 21 36 25 53 21 94 -6 62
-23 80 -85 90 -26 4 -1517 3 -3313 -2 -1796 -6 -4880 -9 -6855 -7 l-3590 3
-12 390 c-24 820 -34 2228 -44 6260 -5 2294 -12 4195 -15 4225 -3 30 -13 63
-22 73 -19 21 -83 22 -131 1z m-5036 -10511 c10 -43 105 -467 212 -943 1004
-4470 1835 -8582 2037 -10080 95 -704 154 -1696 143 -2400 -7 -453 -33 -730
-112 -1217 -181 -1111 -509 -2260 -1015 -3553 -115 -294 -170 -455 -170 -501
0 -40 34 -102 122 -220 120 -162 1869 -2217 3252 -3819 330 -382 697 -807 815
-945 926 -1075 2159 -2494 2976 -3425 1218 -1387 1824 -2087 2331 -2690 699
-833 1234 -1499 1234 -1538 0 -29 -88 -10 -900 196 -261 66 -781 193 -1155
282 -1186 282 -1870 451 -5350 1320 -1870 467 -3823 953 -4340 1080 -3290 810
-6382 1593 -7505 1901 -682 187 -759 218 -1125 462 -821 546 -1957 1579 -2620
2382 -1382 1674 -2214 3403 -2509 5215 -73 453 -110 1405 -110 2880 0 913 6
1176 40 1838 l7 124 496 511 c1877 1939 7895 7961 11960 11970 696 686 1266
1247 1267 1247 1 0 10 -35 19 -77z m-22644 -24693 c149 -41 417 -101 1039
-235 1058 -227 1438 -310 2070 -455 333 -76 738 -169 900 -205 307 -70 400
-98 400 -119 0 -17 -76 -51 -309 -136 -366 -134 -662 -257 -1319 -546 -257
-113 -683 -300 -947 -416 -767 -335 -898 -394 -1115 -504 -269 -135 -370 -202
-495 -328 -114 -115 -159 -187 -241 -385 -28 -69 -84 -202 -122 -296 -134
-325 -444 -1002 -589 -1287 -53 -105 -73 -135 -116 -172 -120 -102 -383 -241
-1517 -804 -1604 -795 -2581 -1272 -3545 -1727 -788 -372 -886 -419 -1637
-793 -406 -201 -741 -363 -744 -359 -19 18 594 1036 1108 1842 257 404 435
687 813 1300 180 292 437 703 570 915 133 212 394 630 580 930 489 787 618
994 740 1185 148 230 613 926 633 947 17 16 751 370 1100 529 97 44 422 190
722 324 300 133 690 308 866 389 420 190 708 313 869 369 187 66 182 65 286
37z"/>
<path d="M94737 110030 c-29 -65 -73 -212 -152 -505 -71 -264 -140 -490 -203
-670 -299 -845 -693 -1693 -992 -2135 -312 -460 -722 -958 -1125 -1369 -660
-672 -1270 -1126 -2228 -1661 -650 -362 -1863 -829 -2712 -1045 -479 -121
-794 -170 -1195 -185 -253 -10 -390 -24 -390 -40 0 -34 310 -161 641 -264 334
-103 986 -222 1444 -262 399 -34 1360 -35 1685 0 505 54 1236 223 1675 386
1271 473 2374 1340 3088 2425 285 434 482 860 631 1365 160 544 214 1013 203
1773 -8 577 -54 999 -169 1557 -45 218 -139 600 -161 652 l-15 33 -25 -55z"/>
<path d="M125710 92230 c-559 -9 -774 -21 -823 -47 -74 -37 -413 -304 -912
-717 -678 -560 -1214 -1020 -2050 -1756 -115 -102 -469 -410 -785 -685 -1221
-1062 -2298 -2016 -3177 -2817 -159 -145 -438 -394 -619 -553 -361 -318 -438
-387 -1069 -960 -236 -215 -513 -465 -615 -555 -1831 -1629 -5972 -5591 -8831
-8450 -1012 -1012 -1302 -1309 -1944 -1990 -1364 -1447 -2741 -2958 -3375
-3705 -112 -132 -328 -384 -480 -560 -152 -176 -327 -383 -390 -460 -62 -77
-220 -266 -349 -420 -258 -305 -398 -474 -597 -720 -598 -737 -1881 -2342
-2225 -2785 -1923 -2473 -3858 -5245 -5314 -7610 -688 -1118 -1230 -2052
-2015 -3475 -134 -242 -297 -534 -363 -649 -170 -299 -311 -574 -816 -1586
-680 -1365 -723 -1455 -1257 -2661 -856 -1935 -1001 -2285 -1575 -3792 -758
-1988 -1386 -4018 -1955 -6317 -87 -350 -145 -596 -408 -1720 -47 -201 -138
-581 -201 -845 -158 -652 -183 -777 -176 -867 3 -50 64 30 202 267 593 1024
2712 4217 4323 6515 862 1230 1923 2663 2829 3823 221 283 543 695 716 916
406 521 745 948 1155 1456 182 226 432 538 555 695 462 587 613 768 1401 1675
235 270 594 686 800 925 775 902 1649 1895 2014 2289 44 48 303 336 575 641
1229 1374 1265 1412 3516 3725 2651 2723 3330 3393 5800 5725 1634 1543 2941
2735 4880 4450 314 277 953 844 1420 1260 1289 1145 1589 1407 2375 2065 508
426 1012 857 1765 1510 369 319 823 710 1010 870 690 587 1500 1295 2055 1795
355 320 582 520 750 660 184 153 418 354 954 820 1190 1031 1677 1450 3571
3070 882 754 1641 1407 1935 1665 316 277 659 569 1080 920 217 181 490 411
605 510 116 99 311 266 435 370 124 104 500 424 835 710 336 286 1031 870
1545 1299 514 429 1149 960 1410 1181 629 531 668 563 1000 832 284 230 411
337 826 699 500 435 1577 1340 1973 1659 311 249 584 479 841 705 96 85 631
539 820 697 80 66 180 153 224 194 70 66 76 74 57 81 -49 18 -2799 29 -7941
32 -3017 2 -5712 0 -5990 -4z"/>
<path d="M43480 90001 c0 -16 27 -147 61 -292 73 -321 232 -1040 299 -1354 83
-387 177 -824 256 -1178 317 -1434 792 -3779 910 -4494 31 -187 35 -331 12
-384 -9 -20 -31 -48 -49 -62 -71 -52 -453 -260 -1134 -617 -1140 -597 -2966
-1571 -3405 -1817 -69 -39 -318 -169 -555 -290 -236 -122 -491 -254 -565 -296
-352 -194 -445 -244 -725 -389 -379 -197 -1385 -700 -1740 -871 -364 -175
-529 -247 -564 -247 -78 0 -435 148 -1753 726 -1048 459 -1433 622 -2038 861
-499 197 -911 343 -968 343 -37 0 -45 35 659 -2845 287 -1174 464 -1906 759
-3140 133 -555 297 -1242 366 -1525 69 -283 218 -900 330 -1370 264 -1099 473
-1949 735 -2985 322 -1272 455 -1788 918 -3555 110 -421 231 -888 270 -1038
38 -151 77 -285 86 -298 50 -77 152 -39 839 306 986 496 1352 719 1792 1094
159 136 678 653 878 876 259 289 430 514 745 985 448 668 625 996 856 1580
425 1078 794 2396 1054 3765 53 279 89 421 107 427 15 5 95 -174 279 -626 214
-527 292 -712 548 -1316 281 -661 484 -1143 665 -1575 77 -184 205 -488 285
-675 79 -187 156 -376 172 -420 31 -92 40 -105 68 -105 75 0 923 391 2452
1130 842 407 1284 616 1451 685 49 21 96 40 104 44 67 32 123 390 225 1441 82
853 86 953 92 2240 8 1899 -24 2598 -192 4085 -212 1876 -642 4060 -1181 5995
-369 1323 -967 2906 -1571 4160 -308 639 -1046 1965 -1416 2545 -159 249 -363
505 -403 505 -9 0 -14 -10 -14 -29z m-8675 -15708 c45 -61 181 -336 283 -573
93 -214 248 -546 525 -1120 234 -487 340 -717 497 -1075 420 -960 842 -2063
1079 -2819 90 -285 183 -607 178 -612 -2 -2 -94 34 -205 81 -425 178 -1325
486 -1622 555 -125 29 -136 34 -154 69 -44 84 -104 356 -160 727 -190 1240
-487 4029 -490 4594 0 164 6 220 24 220 5 0 26 -21 45 -47z"/>
<path d="M50075 82478 c3 -13 28 -66 54 -118 98 -192 173 -423 336 -1034 53
-197 150 -553 216 -790 260 -932 401 -1470 533 -2041 384 -1659 591 -3173 655
-4790 19 -459 22 -605 32 -1390 8 -695 18 -977 33 -993 8 -7 40 6 701 281
1217 506 1871 773 2243 918 114 44 211 84 216 89 10 10 -8 546 -30 880 -129
2005 -707 3764 -1786 5433 -323 499 -714 1035 -1042 1426 -320 382 -554 631
-1180 1256 -509 508 -801 782 -913 858 -64 43 -77 46 -68 15z"/>
<path d="M132695 78287 c-115 -45 -262 -112 -495 -228 -505 -250 -864 -449
-1489 -827 -251 -151 -955 -575 -1566 -942 -1724 -1036 -1896 -1144 -3578
-2259 -1786 -1183 -2588 -1741 -4142 -2880 -926 -678 -1078 -790 -1295 -954
-947 -716 -3811 -3026 -4950 -3992 -91 -77 -275 -236 -410 -354 -135 -118
-380 -327 -545 -465 -573 -480 -1114 -949 -1448 -1254 -100 -92 -389 -354
-642 -582 -600 -540 -841 -759 -1175 -1070 -151 -141 -459 -426 -685 -635
-1988 -1840 -5238 -5031 -6915 -6790 -167 -176 -466 -489 -665 -695 -490 -511
-493 -513 -986 -1040 -920 -982 -1149 -1234 -1835 -2010 -527 -598 -979 -1107
-1384 -1560 -136 -151 -473 -536 -750 -855 -277 -319 -572 -656 -655 -750
-245 -276 -347 -394 -595 -690 -129 -154 -307 -363 -395 -465 -210 -242 -237
-274 -740 -885 -236 -286 -523 -632 -640 -770 -412 -487 -544 -649 -890 -1090
-296 -377 -689 -867 -1227 -1530 -206 -253 -616 -761 -913 -1130 -916 -1138
-1262 -1563 -1470 -1805 -80 -93 -135 -167 -135 -182 0 -5 6 -8 13 -8 20 0
329 154 532 265 258 141 841 431 1335 663 2225 1046 4535 2160 6715 3239 556
275 1163 574 1350 664 432 207 3624 1803 4385 2192 316 162 1133 578 1815 926
1987 1015 2616 1338 3065 1579 577 309 1095 585 1385 737 2377 1249 4026 2155
7120 3913 2794 1587 4023 2309 6025 3537 3991 2449 4992 3074 6455 4028 270
176 659 431 865 565 206 135 994 646 1750 1137 756 491 1566 1017 1800 1170
756 494 1384 921 1406 957 5 8 -1247 9 -4727 4 -5714 -8 -7654 2 -7726 42 -21
12 9 45 211 229 457 418 1186 1043 1916 1643 460 379 546 450 1170 974 535
450 1246 1037 1755 1451 149 121 520 424 825 675 1871 1536 1743 1433 2700
2200 415 333 881 709 1035 835 518 424 947 777 1460 1200 645 532 780 642
2250 1825 2076 1671 2321 1871 2406 1967 l33 38 -65 6 c-120 12 -1946 29
-4119 39 -1191 6 -2232 13 -2315 15 -140 5 -154 4 -210 -18z"/>
<path d="M60750 59790 c-235 -14 -299 -25 -274 -50 26 -26 257 -52 889 -100
869 -66 1456 -130 2365 -260 2623 -374 5047 -1016 7033 -1864 651 -278 1296
-600 1954 -977 1485 -849 2393 -1541 3386 -2578 361 -377 570 -607 809 -892
1067 -1272 1791 -2535 2610 -4549 332 -818 387 -945 399 -933 12 13 46 200 79
443 124 903 571 3264 1230 6485 264 1291 351 1752 354 1885 l1 64 -75 29
c-564 220 -2237 764 -3425 1113 -3364 989 -6580 1619 -9985 1953 -982 97
-2116 152 -4255 206 -1342 34 -2740 45 -3095 25z"/>
</g>
</svg>
